<svg xmlns="http://www.w3.org/2000/svg" xmlns:xlink="http://www.w3.org/1999/xlink" width="24" height="24" viewBox="0 0 24 24" fill="none"><defs><rect id="path_0" x="0" y="0" width="24" height="24" /></defs><g opacity="1" transform="translate(0 0)  rotate(0 12 12)"><mask id="bg-mask-0" fill="white"><use xlink:href="#path_0"></use></mask><g mask="url(#bg-mask-0)" ><g opacity="1" transform="translate(0.5 0)  rotate(0 11.546024578125003 11.999999843553889)"><path id="路径 1" fill-rule="evenodd" style="fill:#292C33" transform="translate(10.675811390624999 8.06962153125)  rotate(0 6.2081188828125 2.801297027343749)" opacity="1" d="M0,3.54L9.58,3.54L9.58,5.54L9.65,5.6L9.66,5.6L12.42,2.71L12.42,2.7L9.58,0L9.58,2.06L0,2.06L0,3.54Z " /><path id="路径 2" fill-rule="evenodd" style="fill:#292C33" transform="translate(0 0)  rotate(0 8.347766800781251 11.999999843553889)" opacity="1" d="M16.66,0.85C16.67,0.81 16.68,0.76 16.68,0.71C16.68,0.32 16.36,0 15.97,0L0.71,0C0.62,0 0.54,0.02 0.46,0.04C0.23,0.07 0.07,0.23 0.03,0.49C0.01,0.56 0,0.63 0,0.71C0,0.78 0.01,0.84 0.03,0.9L0,18.18C0,18.68 0.39,19.29 0.88,19.55L8.82,23.95C9.02,24.06 9.19,23.98 9.19,23.78L9.17,19.94C9.22,19.95 9.27,19.95 9.32,19.95L15.99,19.95C16.38,19.95 16.7,19.63 16.7,19.24L16.7,13.86L15.28,13.86L15.28,18.53L9.32,18.53C9.27,18.53 9.21,18.54 9.16,18.55L9.09,5.28C9.09,4.68 8.6,3.95 8,3.65L3.48,1.42L15.26,1.42L15.26,7.79L16.68,7.79L16.68,1C16.68,0.95 16.67,0.9 16.66,0.85Z " /></g></g></g></svg>